<?xml version="1.0" encoding="utf-8"?>
<!-- Generator: Adobe Illustrator 26.1.0, SVG Export Plug-In . SVG Version: 6.00 Build 0)  -->
<svg version="1.1" id="Layer_1" xmlns="http://www.w3.org/2000/svg" xmlns:xlink="http://www.w3.org/1999/xlink" x="0px" y="0px"
	 viewBox="0 0 512 512" style="enable-background:new 0 0 512 512;" xml:space="preserve">
<style type="text/css">
	.st0{fill:#EFEFEF;}
	.st1{fill:#E8E8E8;}
	.st2{fill:#F4E5BE;}
	.st3{fill:#0A3542;}
	.st4{fill:#FFFFFF;}
</style>
<circle class="st0" cx="256" cy="256" r="256"/>
<path class="st1" d="M389.4,168.7c0-0.1-0.1-0.1-0.2-0.2c-0.1-0.1-0.1-0.1-0.2-0.2c-2.6-2.5-6-3.7-9.3-3.7H132.3
	c-3.4,0-6.9,1.3-9.5,3.9c-2.6,2.6-3.9,6.1-3.9,9.5v156c0,3.3,1.2,6.7,3.7,9.3l0.4,0.4l166.1,166.1C404,495,495,404,509.8,289.1
	L389.4,168.7z"/>
<g>
	<path class="st2" d="M379.7,164.6c3.4,0,6.9,1.3,9.5,3.9c2.6,2.6,3.9,6.1,3.9,9.5v156c0,3.4-1.3,6.9-3.9,9.5s-6.1,3.9-9.5,3.9
		H132.3c-3.4,0-6.9-1.3-9.5-3.9s-3.9-6.1-3.9-9.5V178c0-3.4,1.3-6.9,3.9-9.5s6.1-3.9,9.5-3.9H379.7L379.7,164.6z"/>
	<g>
		<rect x="153" y="306.9" class="st3" width="42.9" height="5.9"/>
		<rect x="207.4" y="306.9" class="st3" width="42.9" height="5.9"/>
		<rect x="261.7" y="306.9" class="st3" width="42.9" height="5.9"/>
		<rect x="316.1" y="306.9" class="st3" width="42.9" height="5.9"/>
	</g>
	<rect x="153" y="255.9" class="st4" width="206" height="23.5"/>
	<g>
		<rect x="254.4" y="265.5" class="st3" width="11.8" height="4.4"/>
		<rect x="272.8" y="265.5" class="st3" width="35.3" height="4.4"/>
		<rect x="314.7" y="265.5" class="st3" width="35.3" height="4.4"/>
		<rect x="118.9" y="197.8" class="st3" width="274.3" height="41.8"/>
	</g>
</g>
</svg>
