<?xml version="1.0" encoding="utf-8"?>
<!-- Generator: Adobe Illustrator 26.1.0, SVG Export Plug-In . SVG Version: 6.00 Build 0)  -->
<svg version="1.1" id="Layer_1" xmlns="http://www.w3.org/2000/svg" xmlns:xlink="http://www.w3.org/1999/xlink" x="0px" y="0px"
	 viewBox="0 0 297 297" style="enable-background:new 0 0 297 297;" xml:space="preserve">
<style type="text/css">
	.st0{fill:#F4E5BE;}
	.st1{fill:#E2D6BC;}
	.st2{fill:#0A3542;}
	.st3{fill:#0F4C5F;}
	.st4{fill:#1D4751;}
	.st5{fill:#D0D5D9;}
	.st6{fill:#32373B;}
	.st7{fill:#484F54;}
</style>
<g>
	<g>
		<g>
			<g>
				<circle class="st0" cx="148.5" cy="148.5" r="148.5"/>
			</g>
		</g>
	</g>
	<path class="st1" d="M217.8,120.3L49.5,198l99,99c66.6,0,122.9-43.8,141.8-104.1L217.8,120.3z"/>
	<g>
		<path class="st2" d="M249.7,198h-72.4v-82.5h28.5c6.5,0,12.5,3.7,15.5,9.6l11.7,23.4l15,11.4c5.1,3.1,8.2,8.7,8.2,14.7v16.8
			C256.2,195.1,253.3,198,249.7,198z"/>
	</g>
	<g>
		<path class="st3" d="M181.5,198h-132V95.2c0-7,5.7-12.7,12.7-12.7h106.7c7,0,12.7,5.7,12.7,12.7L181.5,198L181.5,198z"/>
	</g>
	<g>
		<path class="st4" d="M181.5,95.2c0-7-5.7-12.7-12.7-12.7h-21.2V198h33.8L181.5,95.2L181.5,95.2z"/>
	</g>
	<g>
		<path class="st5" d="M212.6,126.2L224,149h-33v-27h14.8C208.7,122,211.3,123.6,212.6,126.2z"/>
	</g>
	<g>
		<circle class="st6" cx="89.3" cy="198" r="23.3"/>
	</g>
	<g>
		<circle class="st7" cx="89.3" cy="198" r="9"/>
	</g>
	<g>
		<circle class="st6" cx="221.3" cy="198" r="23.3"/>
	</g>
	<g>
		<circle class="st7" cx="221.3" cy="198" r="9"/>
	</g>
</g>
</svg>
