<?xml version="1.0" encoding="utf-8"?>
<!-- Generator: Adobe Illustrator 26.1.0, SVG Export Plug-In . SVG Version: 6.00 Build 0)  -->
<svg version="1.1" id="Layer_1" xmlns="http://www.w3.org/2000/svg" xmlns:xlink="http://www.w3.org/1999/xlink" x="0px" y="0px"
	 viewBox="0 0 152 152" style="enable-background:new 0 0 152 152;" xml:space="preserve">
<style type="text/css">
	.st0{fill:#F4E5BE;}
	.st1{fill:#C2AF80;}
	.st2{fill:#0F4C5F;}
	.st3{fill:#0A3542;}
	.st4{fill:#FFFFF6;}
</style>
<g>
	<path class="st0" d="M57.3,149.1C24.9,140.8,1,111.2,1,76C1,34.3,34.6,0.5,76,0.5c31.7,0,58.9,19.8,69.8,47.9L57.3,149.1z"/>
	<path class="st1" d="M145.8,48.4l-20.7-20.9L108,32.2l-5.1,14.1L28.1,84l13.1,13.2l-13.1,3.2l12.2,12.3l-9.6,9.7l26.6,26.8
		c6,1.5,12.2,2.4,18.7,2.4c41.4,0,75-33.8,75-75.5C151,66.3,149.2,56.9,145.8,48.4z"/>
	<polygon class="st2" points="60.8,46.3 67.3,65.1 60.8,84 28.1,84 22,46.3 	"/>
	<polygon class="st2" points="102.9,46.3 96.7,84 60.8,84 60.8,46.3 	"/>
	<path class="st3" d="M84.9,100.4H28.1v-6.6h56.8c3.8,0,7.5-3.2,8.2-7l7.6-46.9c1.1-6.9,7.7-12.5,14.6-12.5h9.8V34h-9.8
		c-3.8,0-7.5,3.2-8.2,7l-7.6,46.9C98.3,94.8,91.8,100.4,84.9,100.4z"/>
	<path class="st3" d="M34.6,116l2.4,9c5,0,9-4,9-9s-4-9-9-9L34.6,116z"/>
	<path class="st2" d="M28.1,116c0,5,4,9,9,9V107C32.1,107,28.1,111,28.1,116z"/>
	<path class="st3" d="M82.4,116l2.4,9c5,0,9-4,9-9s-4-9-9-9L82.4,116z"/>
	<path class="st2" d="M75.9,116c0,5,4,9,9,9V107C79.9,107,75.9,111,75.9,116z"/>
	<path class="st4" d="M135.7,81.6c0,14-11.3,25.4-25.2,25.4l-8.9-25.4l8.9-25.4C124.4,56.2,135.7,67.6,135.7,81.6z"/>
	<path class="st4" d="M85.3,81.6c0,14,11.3,25.4,25.2,25.4V56.2C96.5,56.2,85.3,67.6,85.3,81.6z"/>
	<path class="st3" d="M110.5,95.7c-6.8,0-12.4-5.6-12.4-12.5v-3.3c0-6.9,5.5-12.5,12.4-12.5c6.8,0,12.4,5.6,12.4,12.5v3.3
		C122.9,90.1,117.3,95.7,110.5,95.7z M110.5,74c-3.2,0-5.9,2.7-5.9,5.9v3.3c0,3.2,2.6,5.9,5.9,5.9c3.2,0,5.9-2.7,5.9-5.9v-3.3
		C116.3,76.7,113.7,74,110.5,74z"/>
</g>
</svg>
