<?xml version="1.0" encoding="utf-8"?>
<!-- Generator: Adobe Illustrator 26.1.0, SVG Export Plug-In . SVG Version: 6.00 Build 0)  -->
<svg version="1.1" id="Layer_1" xmlns="http://www.w3.org/2000/svg" xmlns:xlink="http://www.w3.org/1999/xlink" x="0px" y="0px"
	 viewBox="0 0 460 460" style="enable-background:new 0 0 460 460;" xml:space="preserve">
<style type="text/css">
	.st0{fill:#F4E5BE;}
	.st1{fill:#DDCDAB;}
	.st2{fill:#0F4C5F;}
	.st3{fill:#0A3542;}
	.st4{fill:#FFF4F4;}
	.st5{fill:#E0D9CD;}
	.st6{fill:#F2EADA;}
</style>
<g>
	<path class="st0" d="M230,0C103,0,0,103,0,230c0,98.1,61.4,181.9,147.9,214.9l297-297C411.9,61.4,328.1,0,230,0z"/>
	<path class="st1" d="M460,230c0-28.9-5.4-56.6-15.1-82.1l-66.4-66.4l-297,297l66.4,66.4c25.5,9.7,53.2,15.1,82.1,15.1
		C357,460,460,357,460,230z"/>
	
		<rect x="147.5" y="251.6" transform="matrix(0.7071 -0.7071 0.7071 0.7071 -141.8694 210.6819)" class="st2" width="71.8" height="50"/>
	<polygon class="st3" points="165.1,337.4 102.7,399.7 81.5,378.5 143.8,302 	"/>
	<polygon class="st3" points="150.9,309.1 81.5,378.5 60.3,357.3 122.6,294.9 	"/>
	
		<rect x="139.4" y="275.6" transform="matrix(0.7071 -0.7071 0.7071 0.7071 -170.8694 198.7209)" class="st4" width="30" height="60"/>
	<path class="st3" d="M378.5,273.7c-53.1,53.1-139.1,53.1-192.2,0l28.3-163.9l163.9-28.3C431.6,134.6,431.6,220.7,378.5,273.7z"/>
	<path class="st2" d="M186.3,81.5c-53.1,53.1-53.1,139.1,0,192.2L378.5,81.5C325.4,28.4,239.3,28.4,186.3,81.5z"/>
	<path class="st5" d="M364.4,259.6c-45.3,45.3-118.7,45.3-163.9,0l24.1-139.8l139.8-24.1C409.6,140.9,409.6,214.3,364.4,259.6z"/>
	<path class="st6" d="M200.4,95.7c-45.3,45.3-45.3,118.7,0,163.9l164-163.9C319.1,50.4,245.7,50.4,200.4,95.7z"/>
	<path class="st2" d="M315.6,150h-15v-42.9c0-10.1-8.2-18.3-18.3-18.3S264,97,264,107.1V150h-15v-42.9c0-18.3,14.9-33.3,33.3-33.3
		s33.3,14.9,33.3,33.3V150L315.6,150z"/>
	<polygon class="st2" points="282.4,111.4 296.5,187.9 282.4,254.4 216.1,229.4 216.1,111.4 	"/>
	<polygon class="st3" points="282.4,111.4 282.4,229.4 216.1,229.4 216.1,264.4 348.6,264.4 348.6,111.4 	"/>
</g>
</svg>
