<?xml version="1.0" encoding="utf-8"?>
<!-- Generator: Adobe Illustrator 26.1.0, SVG Export Plug-In . SVG Version: 6.00 Build 0)  -->
<svg version="1.1" id="Layer_1" xmlns="http://www.w3.org/2000/svg" xmlns:xlink="http://www.w3.org/1999/xlink" x="0px" y="0px"
	 viewBox="0 0 128 128" style="enable-background:new 0 0 128 128;" xml:space="preserve">
<style type="text/css">
	.st0{fill:#C87D5E;}
	.st1{fill:#874D36;}
	.st2{fill:#F4E5BE;}
	.st3{fill:#C2AF80;}
	.st4{fill:#C62828;}
	.st5{fill:#F44336;}
	.st6{fill:#FF7555;}
	.st7{fill:#82AEC0;}
	.st8{fill:#E0E0E0;}
	.st9{fill:#FFFFFF;}
	.st10{fill:#F5F5F5;}
	.st11{opacity:0.57;fill:#FFFFFF;enable-background:new    ;}
</style>
<path class="st0" d="M63.1,84.2h18.3V124H63.1V84.2z"/>
<path class="st1" d="M81.4,94.2c-1.6-2.7-3.8-4.9-6.6-6.4c-1.7-0.9-3.6-1.4-5.5-1.6h-3.2c-1,0.1-2.1,0.3-3.1,0.6v20.1
	c0.9-1.4,2.4-2.3,4-2.7c2.8-0.7,5.8,0.4,8,2.2s3.9,4.1,5.6,6.5l0.7,1L81.4,94.2L81.4,94.2z"/>
<path class="st2" d="M97.6,25.1H28.9c0,0,23.6,2.9,23.6,22.8l0.1,50.5h66.5c2.7,0,4.8-2.2,4.8-4.8v-42
	C124,36.9,112.2,25.1,97.6,25.1z"/>
<path class="st3" d="M83.5,34l-8.1,0.3L63.5,52.5V37.7c0-7.9-8-12.6-8-12.6h31.2l0.2,0.2C90.1,28.4,88,33.9,83.5,34z"/>
<ellipse class="st3" cx="74.2" cy="54.1" rx="8.1" ry="9.2"/>
<path class="st4" d="M66.9,10.1v41.6c0,1.4,1.1,2.5,2.5,2.5h5.1c1.4,0,2.5-1.1,2.5-2.5V4h-4C69.6,4,66.9,6.7,66.9,10.1z"/>
<path class="st5" d="M69.1,10.1v41.6h8.2V19.5h14.1c3.2,0,3.6-1.4,3.6-7.6S94.7,4,91.4,4H75.2C71.9,4,69.1,6.7,69.1,10.1L69.1,10.1z
	"/>
<path class="st6" d="M74.4,10.9c-0.1,2-1.4,20-1.6,23.4c-0.3,4.1-2.6,4.5-2.6,0.8V10.7C70.2,6.8,74.5,6.5,74.4,10.9z"/>
<path class="st7" d="M73.4,42.4l0.1,18.3h-4.1c-4.1,0-7.3-4.1-7.3-9.2s3.3-9.2,7.3-9.2L73.4,42.4z"/>
<ellipse class="st8" cx="73.4" cy="51.6" rx="7.3" ry="9.2"/>
<path class="st9" d="M69,51.9c0.4,0.2,1,0,1.3-0.3c1.2-1,1.6-2.6,2.7-3.6c0.9-0.9,2.4-1.9,1.2-3.2c-0.8-1-2.2-0.9-3.2-0.4
	C68.7,45.4,66.8,50.7,69,51.9z"/>
<path class="st10" d="M25.5,25.1L25,98.3h28.5c1.2,0,2.1-0.9,2.1-2.1V47.9c0-12.3-7.7-22.3-21.2-22.8C34.2,25.1,25.9,25.1,25.5,25.1
	z"/>
<path class="st2" d="M26.1,25.1C10.4,25.1,4,34.8,4,47.9v47.9c0,1.4,1.2,2.6,2.6,2.6l0,0h42.6c1.2,0,2.1-0.9,2.1-2.1V47.9
	C51.3,34.8,41.9,25.1,26.1,25.1z"/>
<path class="st3" d="M33.2,46H22.3c-1.2,0-2.1-0.9-2.1-2.1l0,0v-6.7h15.1v6.7C35.3,45.1,34.3,46,33.2,46z"/>
<path class="st10" d="M34.5,36H18.8c-1,0-2.5,0.6-2.5,2.4v3c0,1,0.9,1.9,1.9,1.9h11.1c1,0,1.9-0.8,1.9-1.9v-0.8c0-1,0.8-1.8,1.8-1.8
	h1.5c0.5,0,0.8-0.4,0.8-0.8v-1.2C35.4,36.4,35,36,34.5,36z"/>
<path class="st11" d="M30.4,37.8c-0.2,0.3-0.5,0.5-0.8,0.5H17.3c0,0,0.1-1.6,1.5-1.6h12.5c0.1,0,0.1,0.2,0.1,0.2
	C30.8,37.2,30.5,37.5,30.4,37.8z"/>
</svg>
