<?xml version="1.0" encoding="utf-8"?>
<!-- Generator: Adobe Illustrator 26.1.0, SVG Export Plug-In . SVG Version: 6.00 Build 0)  -->
<svg version="1.1" id="Layer_1" xmlns="http://www.w3.org/2000/svg" xmlns:xlink="http://www.w3.org/1999/xlink" x="0px" y="0px"
	 viewBox="0 0 78 56" style="enable-background:new 0 0 78 56;" xml:space="preserve">
<style type="text/css">
	.st0{fill:#FFFFFF;stroke:#D9D9D9;}
	.st1{fill-rule:evenodd;clip-rule:evenodd;fill:#ED0006;}
	.st2{fill-rule:evenodd;clip-rule:evenodd;fill:#F9A000;}
	.st3{fill-rule:evenodd;clip-rule:evenodd;fill:#FF5E00;}
</style>
<g>
	<path class="st0" d="M10,0.5h58c3,0,5.5,2.5,5.5,5.5v36c0,3-2.5,5.5-5.5,5.5H10c-3,0-5.5-2.5-5.5-5.5V6C4.5,3,7,0.5,10,0.5z"/>
	<path class="st1" d="M39.5,34.3c-2.4,2.1-5.5,3.3-8.9,3.3c-7.5,0-13.6-6.2-13.6-13.8C17,16.2,23.1,10,30.6,10
		c3.4,0,6.5,1.2,8.9,3.3c2.4-2.1,5.5-3.3,8.9-3.3C55.9,10,62,16.2,62,23.8c0,7.6-6.1,13.8-13.6,13.8C45,37.6,41.9,36.4,39.5,34.3z"
		/>
	<path class="st2" d="M39.5,34.3c2.9-2.5,4.8-6.3,4.8-10.5c0-4.2-1.9-8-4.8-10.5c2.4-2.1,5.5-3.3,8.9-3.3C55.9,10,62,16.2,62,23.8
		c0,7.6-6.1,13.8-13.6,13.8C45,37.6,41.9,36.4,39.5,34.3z"/>
	<path class="st3" d="M39.5,13.3c2.9,2.5,4.8,6.3,4.8,10.5s-1.9,8-4.8,10.5c-2.9-2.5-4.8-6.3-4.8-10.5S36.6,15.8,39.5,13.3z"/>
</g>
</svg>
