<?xml version="1.0" encoding="utf-8"?>
<!-- Generator: Adobe Illustrator 26.1.0, SVG Export Plug-In . SVG Version: 6.00 Build 0)  -->
<svg version="1.1" id="Layer_1" xmlns="http://www.w3.org/2000/svg" xmlns:xlink="http://www.w3.org/1999/xlink" x="0px" y="0px"
	 viewBox="0 0 512 512" style="enable-background:new 0 0 512 512;" xml:space="preserve">
<style type="text/css">
	.st0{fill:#F4E5BE;}
	.st1{fill:#E5D7B5;}
	.st2{fill:#FFC61B;}
	.st3{fill:#EAA22F;}
	.st4{fill:#FFFFF6;}
	.st5{fill:#EFEFE8;}
	.st6{fill:#293A3A;}
	.st7{fill:#1C2728;}
</style>
<circle class="st0" cx="256" cy="256" r="256"/>
<path class="st1" d="M502.8,324.4L308.4,130l-32.5-11l-45.4,4.3l-31.3,33.2V244l-23.9,176.7l91.1,91.1
	C379.5,507.3,473.7,429.4,502.8,324.4z"/>
<path class="st2" d="M312.9,293.9c-5.2,0-9.5-4.2-9.5-9.5V170.7c0-26.1-21.3-47.4-47.4-47.4s-47.4,21.3-47.4,47.4v113.8
	c0,5.2-4.2,9.5-9.5,9.5c-5.2,0-9.5-4.2-9.5-9.5V170.7c0-36.6,29.8-66.4,66.4-66.4s66.4,29.8,66.4,66.4v113.8
	C322.4,289.7,318.1,293.9,312.9,293.9z"/>
<path class="st3" d="M256,104.3v19c26.1,0,47.4,21.3,47.4,47.4v113.8c0,5.2,4.2,9.5,9.5,9.5s9.5-4.2,9.5-9.5V170.7
	C322.4,134.1,292.6,104.3,256,104.3z"/>
<path class="st4" d="M323.4,426.7H188.6c-9.9,0-18-8-18-18V274c0-9.9,8-18,18-18h134.8c9.9,0,18,8,18,18v134.8
	C341.3,418.6,333.3,426.7,323.4,426.7z"/>
<path class="st5" d="M323.4,256H256v170.7h67.4c9.9,0,18-8,18-18V274C341.3,264,333.3,256,323.4,256z"/>
<path class="st6" d="M275.8,325.1c0-11.7-10.1-21-22.1-19.7c-9.2,1-16.6,8.5-17.5,17.7c-0.8,8.2,3.4,15.4,9.8,19.1v23.6
	c0,5.5,4.4,9.9,9.9,9.9l0,0c5.5,0,9.9-4.4,9.9-9.9v-23.6C271.8,338.8,275.8,332.4,275.8,325.1z"/>
<path class="st7" d="M256,305.2v70.5c5.5,0,9.9-4.4,9.9-9.9v-23.6c5.9-3.4,9.9-9.8,9.9-17.2C275.8,314.1,266.9,305.2,256,305.2z"/>
</svg>
