<?xml version="1.0" encoding="utf-8"?>
<!-- Generator: Adobe Illustrator 26.1.0, SVG Export Plug-In . SVG Version: 6.00 Build 0)  -->
<svg version="1.1" id="Layer_1" xmlns="http://www.w3.org/2000/svg" xmlns:xlink="http://www.w3.org/1999/xlink" x="0px" y="0px"
	 viewBox="0 0 512 512" style="enable-background:new 0 0 512 512;" xml:space="preserve">
<style type="text/css">
	.st0{fill:#F4E5BE;}
	.st1{fill:#E5D0A3;}
	.st2{fill:#FFFFF6;}
	.st3{fill:#DDDDDD;}
</style>
<circle class="st0" cx="256" cy="256" r="256"/>
<path class="st1" d="M293.4,509.2L118.3,330.5l285-173.9l108.5,108.5c-4.4,124.5-97.7,226.3-218.3,244v0.1H293.4z"/>
<path class="st2" d="M123.7,141.9H384c9.1,0,16.5,7.4,16.5,16.5V312c0,9.1-7.4,16.5-16.5,16.5h-39.3L315.6,365l-29.1-36.4H123.7
	c-9.1,0-16.5-7.4-16.5-16.5V158.5C107.2,149.4,114.6,141.9,123.7,141.9z"/>
<path class="st3" d="M159.7,245.3h2l11.9-6.4l1.9-7.6c-2.8-2.9-5.8-7.7-8.4-13.7c-0.2,0-0.4,0-0.7,0c-3.1,0-6.2-3.4-6.9-7.7
	c-0.6-3.3,0.6-6.1,2.6-7.2c-2.7-13.5-4.4-34.3,18.9-39.4c14-3.1,19,7.7,19.5,8.9c8.4-4.8,13.9,2.3,15.2,6.1
	c2.6,6.8,1.7,19.4,0.4,25.1c1.4,1.3,2.1,3.8,1.7,6.6c-0.7,4.1-3.7,7.6-6.8,7.7c-2.4,5.4-5.9,10.1-9.2,13.5l1.9,7.6h0.1l11.6,6.4h2.2
	c15.2,0,27.7,12,27.7,26.5v21.5H131.9v-21.5c0-14.7,12.4-26.5,27.7-26.5L159.7,245.3z"/>
<path class="st3" d="M258.1,180.3H370v10.4H258.1V180.3z M258.1,242.8h56v10.4h-56V242.8z M258.1,221.9H370v10.4H258.1V221.9z
	 M258.1,201H370v10.4H258.1V201z"/>
</svg>
