<?xml version="1.0" encoding="utf-8"?>
<!-- Generator: Adobe Illustrator 26.1.0, SVG Export Plug-In . SVG Version: 6.00 Build 0)  -->
<svg version="1.1" id="Layer_1" xmlns="http://www.w3.org/2000/svg" xmlns:xlink="http://www.w3.org/1999/xlink" x="0px" y="0px"
	 viewBox="0 0 460.3 460.3" style="enable-background:new 0 0 460.3 460.3;" xml:space="preserve">
<style type="text/css">
	.st0{fill:#0F4C5F;}
	.st1{fill:#0A3542;}
	.st2{fill:#E5E5DF;}
	.st3{fill:#FFFFF6;}
</style>
<g>
	<path class="st0" d="M230.2,0c-127,0-230,103-230,230c0,115.4,85,211,195.9,227.5l264-234C456.6,99.5,355,0,230.2,0z"/>
	<path class="st1" d="M460.2,230.3c0-2.3,0-4.6-0.1-6.9L305.4,68.8L154.7,219.5l67,67L99.4,361.1l96.7,96.7
		c11.1,1.7,22.5,2.5,34.1,2.5C357.2,460.3,460.2,357.4,460.2,230.3z"/>
	<path class="st2" d="M230,37.6c58.9,0,106.6,47.7,106.6,106.6S288.9,250.7,230,250.7l-37.4-106.6L230,37.6z"/>
	<path class="st3" d="M230,37.6v213.1c-58.9,0-106.6-47.7-106.6-106.6S171.2,37.6,230,37.6z"/>
	<path class="st2" d="M323.9,270.7c25.5,12.6,48.2,30.3,66.6,51.7c-32,55.3-91.8,92.6-160.3,92.6l-20-92.1l95.8-52.1L323.9,270.7z"
		/>
	<path class="st3" d="M136.5,270.7c-25.6,12.6-48.2,30.3-66.6,51.7c32,55.3,91.8,92.6,160.3,92.6V308.2l-75.8-37.5H136.5z"/>
	<polygon class="st2" points="277.7,270.7 220.2,308.2 230.2,346.5 306,270.7 	"/>
	<polygon class="st3" points="182.7,270.7 230.2,308.2 230.2,346.5 154.4,270.7 	"/>
	<polygon class="st2" points="230.2,270.7 220.2,291 230.2,318.2 277.7,270.7 	"/>
	<polygon class="st3" points="182.7,270.7 230.2,318.2 230.2,270.7 	"/>
</g>
</svg>
